<svg width="292" height="74" viewBox="0 0 292 74" fill="none" xmlns="http://www.w3.org/2000/svg">
<path fill-rule="evenodd" clip-rule="evenodd" d="M0.0196208 20.2068V11.2692C0.0196208 11.2692 13.2289 0 32.8484 0C52.468 0 65.6773 11.2692 65.6773 11.2692V43.9109C65.6773 43.9109 62.5692 65.2835 32.8484 71.8895C-1.9229 63.3405 0.0196208 40.025 0.0196208 40.025L47.4174 18.2638C47.4174 18.2638 41.9784 14.3779 32.6542 14.3779C23.33 14.3779 17.8909 18.2638 17.8909 18.2638V27.2014C17.8909 27.2014 12.2873 26.8485 8.95528 25.6471C5.11215 24.2614 0.0196208 20.2068 0.0196208 20.2068ZM18.2795 48.1854L47.029 34.1961V48.9626C47.029 48.9626 41.5702 55.5687 32.6542 57.5116C23.6989 56.3459 18.2795 48.1854 18.2795 48.1854Z" fill="white"/>
<path d="M87.8025 62.5633C87.8025 67.9287 83.454 72.2781 78.0899 72.2781C72.7257 72.2781 68.3772 67.9287 68.3772 62.5633C68.3772 57.198 72.7257 52.8485 78.0899 52.8485C83.454 52.8485 87.8025 57.198 87.8025 62.5633Z" fill="#02FF30"/>
<path d="M113.444 18.6524V9.49683C113.444 9.49683 109.17 5.71163 104.12 3.92385C100.643 2.69309 94.7956 2.33157 94.7956 2.33157V18.6524H113.444Z" fill="white"/>
<path d="M94.7956 23.3155H113.444V62.9977C113.444 62.9977 113.444 68.3922 104.12 71.501C94.7956 68.3922 94.7956 62.9977 94.7956 62.9977V23.3155Z" fill="white"/>
<path d="M137.272 6.15194C138.529 6.15194 139.599 6.59851 140.48 7.49164C141.373 8.38478 141.819 9.4777 141.819 10.7704C141.819 12.0631 141.373 13.156 140.48 14.0492C139.599 14.9423 138.529 15.3889 137.272 15.3889C135.71 15.3889 134.523 14.7425 133.712 13.4498V18.7029H132.549V6.36347H133.712V8.09099C134.523 6.79829 135.71 6.15194 137.272 6.15194ZM134.717 13.2559C135.386 13.9258 136.209 14.2607 137.184 14.2607C138.159 14.2607 138.982 13.9258 139.651 13.2559C140.321 12.5743 140.656 11.7458 140.656 10.7704C140.656 9.795 140.321 8.97237 139.651 8.30252C138.982 7.62091 138.159 7.28011 137.184 7.28011C136.209 7.28011 135.386 7.62091 134.717 8.30252C134.047 8.97237 133.712 9.795 133.712 10.7704C133.712 11.7458 134.047 12.5743 134.717 13.2559Z" fill="#02FF30"/>
<path d="M147.824 6.15194C149.128 6.15194 150.18 6.61613 150.979 7.54453C151.79 8.46117 152.195 9.54821 152.195 10.8057C152.195 10.9349 152.183 11.1171 152.16 11.3521H144.423C144.54 12.2453 144.916 12.9562 145.551 13.4851C146.197 14.0021 146.99 14.2607 147.93 14.2607C148.6 14.2607 149.175 14.1255 149.657 13.8552C150.151 13.5732 150.521 13.2089 150.767 12.7623L151.79 13.3617C151.402 13.9845 150.873 14.4781 150.204 14.8424C149.534 15.2067 148.77 15.3889 147.912 15.3889C146.526 15.3889 145.398 14.954 144.529 14.0844C143.659 13.2148 143.224 12.1101 143.224 10.7704C143.224 9.4542 143.653 8.3554 144.511 7.47402C145.369 6.59263 146.473 6.15194 147.824 6.15194ZM147.824 7.28011C146.908 7.28011 146.138 7.55628 145.516 8.10861C144.905 8.6492 144.54 9.35431 144.423 10.2239H150.997C150.879 9.29555 150.521 8.57281 149.922 8.05573C149.322 7.53865 148.623 7.28011 147.824 7.28011Z" fill="#02FF30"/>
<path d="M161.165 15.1773H159.614L155.208 10.929V15.1773H154.045V6.36347H155.208V10.2592L159.403 6.36347H160.989L156.442 10.5941L161.165 15.1773Z" fill="#02FF30"/>
<path d="M169.261 14.0668C168.368 14.9482 167.275 15.3889 165.982 15.3889C164.69 15.3889 163.592 14.9482 162.687 14.0668C161.794 13.1736 161.347 12.0748 161.347 10.7704C161.347 9.46595 161.794 8.37303 162.687 7.49164C163.592 6.59851 164.69 6.15194 165.982 6.15194C167.275 6.15194 168.368 6.59851 169.261 7.49164C170.165 8.37303 170.618 9.46595 170.618 10.7704C170.618 12.0748 170.165 13.1736 169.261 14.0668ZM163.515 13.2559C164.185 13.9258 165.007 14.2607 165.982 14.2607C166.958 14.2607 167.78 13.9258 168.45 13.2559C169.12 12.5743 169.454 11.7458 169.454 10.7704C169.454 9.795 169.12 8.97237 168.45 8.30252C167.78 7.62091 166.958 7.28011 165.982 7.28011C165.007 7.28011 164.185 7.62091 163.515 8.30252C162.845 8.97237 162.511 9.795 162.511 10.7704C162.511 11.7458 162.845 12.5743 163.515 13.2559Z" fill="#02FF30"/>
<path d="M181.2 6.36347V15.1773H180.037V8.14387L176.952 13.1501H176.811L173.727 8.14387V15.1773H172.564V6.36347H173.903L176.882 11.1935L179.86 6.36347H181.2Z" fill="#02FF30"/>
<path d="M187.736 6.15194C189.04 6.15194 190.092 6.61613 190.891 7.54453C191.701 8.46117 192.107 9.54821 192.107 10.8057C192.107 10.9349 192.095 11.1171 192.072 11.3521H184.335C184.452 12.2453 184.828 12.9562 185.463 13.4851C186.109 14.0021 186.902 14.2607 187.842 14.2607C188.512 14.2607 189.087 14.1255 189.569 13.8552C190.062 13.5732 190.433 13.2089 190.679 12.7623L191.701 13.3617C191.314 13.9845 190.785 14.4781 190.115 14.8424C189.446 15.2067 188.682 15.3889 187.824 15.3889C186.438 15.3889 185.31 14.954 184.44 14.0844C183.571 13.2148 183.136 12.1101 183.136 10.7704C183.136 9.4542 183.565 8.3554 184.423 7.47402C185.281 6.59263 186.385 6.15194 187.736 6.15194ZM187.736 7.28011C186.82 7.28011 186.05 7.55628 185.427 8.10861C184.816 8.6492 184.452 9.35431 184.335 10.2239H190.908C190.791 9.29555 190.433 8.57281 189.833 8.05573C189.234 7.53865 188.535 7.28011 187.736 7.28011Z" fill="#02FF30"/>
<path d="M200.196 6.36347H201.359V15.1773H200.196V11.3345H195.12V15.1773H193.957V6.36347H195.12V10.2063H200.196V6.36347Z" fill="#02FF30"/>
<path d="M211.221 14.0492H212.455V17.5394H211.291V15.1773H204.101V17.5394H202.938V14.0492H204.013C204.612 13.2618 204.912 12.1512 204.912 10.7175V6.36347H211.221V14.0492ZM205.423 14.0492H210.058V7.49164H206.075V10.7175C206.075 12.069 205.857 13.1795 205.423 14.0492Z" fill="#02FF30"/>
<path d="M221.448 6.36347H222.611V15.1773H221.448V13.4498C220.637 14.7425 219.451 15.3889 217.888 15.3889C216.631 15.3889 215.556 14.9423 214.663 14.0492C213.782 13.156 213.341 12.0631 213.341 10.7704C213.341 9.4777 213.782 8.38478 214.663 7.49164C215.556 6.59851 216.631 6.15194 217.888 6.15194C219.451 6.15194 220.637 6.79829 221.448 8.09099V6.36347ZM215.509 13.2559C216.179 13.9258 217.001 14.2607 217.976 14.2607C218.951 14.2607 219.774 13.9258 220.444 13.2559C221.113 12.5743 221.448 11.7458 221.448 10.7704C221.448 9.795 221.113 8.97237 220.444 8.30252C219.774 7.62091 218.951 7.28011 217.976 7.28011C217.001 7.28011 216.179 7.62091 215.509 8.30252C214.839 8.97237 214.504 9.795 214.504 10.7704C214.504 11.7458 214.839 12.5743 215.509 13.2559Z" fill="#02FF30"/>
<path d="M231.419 6.36347V7.49164H228.299V15.1773H227.136V7.49164H224.017V6.36347H231.419Z" fill="#02FF30"/>
<path d="M236.563 6.15194C237.867 6.15194 238.919 6.61613 239.718 7.54453C240.528 8.46117 240.934 9.54821 240.934 10.8057C240.934 10.9349 240.922 11.1171 240.899 11.3521H233.162C233.279 12.2453 233.655 12.9562 234.29 13.4851C234.936 14.0021 235.729 14.2607 236.669 14.2607C237.339 14.2607 237.914 14.1255 238.396 13.8552C238.889 13.5732 239.26 13.2089 239.506 12.7623L240.528 13.3617C240.141 13.9845 239.612 14.4781 238.942 14.8424C238.273 15.2067 237.509 15.3889 236.651 15.3889C235.265 15.3889 234.137 14.954 233.267 14.0844C232.398 13.2148 231.963 12.1101 231.963 10.7704C231.963 9.4542 232.392 8.3554 233.25 7.47402C234.108 6.59263 235.212 6.15194 236.563 6.15194ZM236.563 7.28011C235.647 7.28011 234.877 7.55628 234.254 8.10861C233.643 8.6492 233.279 9.35431 233.162 10.2239H239.735C239.618 9.29555 239.26 8.57281 238.66 8.05573C238.061 7.53865 237.362 7.28011 236.563 7.28011Z" fill="#02FF30"/>
<path d="M249.666 6.36347V15.1773H248.502V7.49164H244.519V11.4226C244.519 12.8916 244.237 13.9023 243.673 14.4546C243.121 15.0069 242.358 15.2478 241.382 15.1773V14.0844C242.052 14.1549 242.546 13.9963 242.863 13.6085C243.192 13.2207 243.356 12.492 243.356 11.4226V6.36347H249.666Z" fill="#02FF30"/>
<path d="M255.707 9.71274C256.53 9.71274 257.223 9.97128 257.787 10.4884C258.362 10.9937 258.65 11.6459 258.65 12.445C258.65 13.2442 258.362 13.9023 257.787 14.4193C257.223 14.9247 256.53 15.1773 255.707 15.1773H252.129V6.36347H253.293V9.71274H255.707ZM255.707 14.0492C256.201 14.0492 256.618 13.9023 256.958 13.6085C257.311 13.3147 257.487 12.9269 257.487 12.445C257.487 11.9632 257.311 11.5754 256.958 11.2816C256.618 10.9878 256.201 10.8409 255.707 10.8409H253.293V14.0492H255.707Z" fill="#02FF30"/>
<path d="M266.647 6.36347H267.81V15.1773H266.647V11.3345H261.571V15.1773H260.408V6.36347H261.571V10.2063H266.647V6.36347Z" fill="#02FF30"/>
<path d="M277.848 6.36347H279.011V15.1773H277.848V13.4498C277.037 14.7425 275.851 15.3889 274.288 15.3889C273.031 15.3889 271.956 14.9423 271.063 14.0492C270.182 13.156 269.741 12.0631 269.741 10.7704C269.741 9.4777 270.182 8.38478 271.063 7.49164C271.956 6.59851 273.031 6.15194 274.288 6.15194C275.851 6.15194 277.037 6.79829 277.848 8.09099V6.36347ZM271.909 13.2559C272.578 13.9258 273.401 14.2607 274.376 14.2607C275.351 14.2607 276.174 13.9258 276.843 13.2559C277.513 12.5743 277.848 11.7458 277.848 10.7704C277.848 9.795 277.513 8.97237 276.843 8.30252C276.174 7.62091 275.351 7.28011 274.376 7.28011C273.401 7.28011 272.578 7.62091 271.909 8.30252C271.239 8.97237 270.904 9.795 270.904 10.7704C270.904 11.7458 271.239 12.5743 271.909 13.2559Z" fill="#02FF30"/>
<path d="M287.818 6.36347V15.1773H286.655V11.7928H285.14L282.426 15.1773H280.945L283.73 11.7576C283.025 11.6518 282.443 11.358 281.985 10.8762C281.527 10.3943 281.298 9.80087 281.298 9.09577C281.298 8.29664 281.58 7.64442 282.144 7.13909C282.719 6.62201 283.418 6.36347 284.241 6.36347H287.818ZM284.241 10.6999H286.655V7.49164H284.241C283.747 7.49164 283.324 7.63854 282.972 7.93234C282.631 8.22613 282.461 8.61394 282.461 9.09577C282.461 9.57759 282.631 9.9654 282.972 10.2592C283.324 10.553 283.747 10.6999 284.241 10.6999Z" fill="#02FF30"/>
<path d="M136.655 31.4461C135.328 31.4461 134.223 31.0054 133.342 30.124C132.461 29.2309 132.02 28.1321 132.02 26.8276C132.02 25.5232 132.461 24.4302 133.342 23.5489C134.223 22.6557 135.328 22.2092 136.655 22.2092C137.525 22.2092 138.306 22.4207 138.999 22.8437C139.692 23.2551 140.198 23.8133 140.515 24.5184L139.563 25.0648C139.328 24.536 138.946 24.1188 138.418 23.8133C137.901 23.496 137.313 23.3373 136.655 23.3373C135.68 23.3373 134.858 23.6781 134.188 24.3597C133.518 25.0296 133.183 25.8522 133.183 26.8276C133.183 27.803 133.518 28.6315 134.188 29.3131C134.858 29.983 135.68 30.3179 136.655 30.3179C137.313 30.3179 137.901 30.1651 138.418 29.8596C138.935 29.5423 139.34 29.1192 139.634 28.5904L140.603 29.1545C140.239 29.8596 139.704 30.4178 138.999 30.8291C138.294 31.2404 137.513 31.4461 136.655 31.4461Z" fill="#02FF30"/>
<path d="M148.688 22.4207H149.675V31.2345H148.512V24.4479L143.26 31.2345H142.273V22.4207H143.436V29.2074L148.688 22.4207Z" fill="#02FF30"/>
<path d="M156.241 31.4461C154.914 31.4461 153.809 31.0054 152.928 30.124C152.047 29.2309 151.606 28.1321 151.606 26.8276C151.606 25.5232 152.047 24.4302 152.928 23.5489C153.809 22.6557 154.914 22.2092 156.241 22.2092C157.111 22.2092 157.892 22.4207 158.585 22.8437C159.278 23.2551 159.784 23.8133 160.101 24.5184L159.149 25.0648C158.914 24.536 158.532 24.1188 158.004 23.8133C157.487 23.496 156.899 23.3373 156.241 23.3373C155.266 23.3373 154.444 23.6781 153.774 24.3597C153.104 25.0296 152.769 25.8522 152.769 26.8276C152.769 27.803 153.104 28.6315 153.774 29.3131C154.444 29.983 155.266 30.3179 156.241 30.3179C156.899 30.3179 157.487 30.1651 158.004 29.8596C158.521 29.5423 158.926 29.1192 159.22 28.5904L160.189 29.1545C159.825 29.8596 159.29 30.4178 158.585 30.8291C157.88 31.2404 157.099 31.4461 156.241 31.4461Z" fill="#02FF30"/>
<path d="M168.031 22.4207V23.5489H164.912V31.2345H163.749V23.5489H160.629V22.4207H168.031Z" fill="#02FF30"/>
<path d="M173.176 22.2092C174.48 22.2092 175.532 22.6733 176.33 23.6017C177.141 24.5184 177.547 25.6054 177.547 26.8629C177.547 26.9921 177.535 27.1743 177.511 27.4093H169.774C169.892 28.3025 170.268 29.0134 170.902 29.5423C171.549 30.0594 172.342 30.3179 173.282 30.3179C173.951 30.3179 174.527 30.1828 175.009 29.9125C175.502 29.6304 175.872 29.2661 176.119 28.8195L177.141 29.4189C176.753 30.0417 176.225 30.5353 175.555 30.8996C174.885 31.2639 174.122 31.4461 173.264 31.4461C171.877 31.4461 170.75 31.0113 169.88 30.1416C169.011 29.272 168.576 28.1673 168.576 26.8276C168.576 25.5114 169.005 24.4126 169.862 23.5312C170.72 22.6498 171.825 22.2092 173.176 22.2092ZM173.176 23.3373C172.259 23.3373 171.49 23.6135 170.867 24.1658C170.256 24.7064 169.892 25.4115 169.774 26.2812H176.348C176.231 25.3528 175.872 24.63 175.273 24.1129C174.674 23.5959 173.975 23.3373 173.176 23.3373Z" fill="#02FF30"/>
<path d="M188.032 22.4207V31.2345H186.869V24.2011L183.785 29.2074H183.644L180.56 24.2011V31.2345H179.397V22.4207H180.736L183.715 27.2507L186.693 22.4207H188.032Z" fill="#02FF30"/>
<path d="M198.076 22.4207H199.239V31.2345H198.076V29.507C197.265 30.7997 196.079 31.4461 194.516 31.4461C193.259 31.4461 192.184 30.9995 191.291 30.1064C190.41 29.2132 189.969 28.1203 189.969 26.8276C189.969 25.5349 190.41 24.442 191.291 23.5489C192.184 22.6557 193.259 22.2092 194.516 22.2092C196.079 22.2092 197.265 22.8555 198.076 24.1482V22.4207ZM192.137 29.3131C192.806 29.983 193.629 30.3179 194.604 30.3179C195.579 30.3179 196.402 29.983 197.071 29.3131C197.741 28.6315 198.076 27.803 198.076 26.8276C198.076 25.8522 197.741 25.0296 197.071 24.3597C196.402 23.6781 195.579 23.3373 194.604 23.3373C193.629 23.3373 192.806 23.6781 192.137 24.3597C191.467 25.0296 191.132 25.8522 191.132 26.8276C191.132 27.803 191.467 28.6315 192.137 29.3131Z" fill="#02FF30"/>
<path d="M213.228 31.2345H211.677L207.271 26.9863V31.2345H206.108V22.4207H207.271V26.3164L211.466 22.4207H213.052L208.505 26.6513L213.228 31.2345Z" fill="#02FF30"/>
<path d="M219.54 22.2092C220.797 22.2092 221.866 22.6557 222.747 23.5489C223.64 24.442 224.087 25.5349 224.087 26.8276C224.087 28.1203 223.64 29.2132 222.747 30.1064C221.866 30.9995 220.797 31.4461 219.54 31.4461C217.977 31.4461 216.79 30.7997 215.98 29.507V34.7601H214.817V22.4207H215.98V24.1482C216.79 22.8555 217.977 22.2092 219.54 22.2092ZM216.984 29.3131C217.654 29.983 218.476 30.3179 219.452 30.3179C220.427 30.3179 221.249 29.983 221.919 29.3131C222.589 28.6315 222.923 27.803 222.923 26.8276C222.923 25.8522 222.589 25.0296 221.919 24.3597C221.249 23.6781 220.427 23.3373 219.452 23.3373C218.476 23.3373 217.654 23.6781 216.984 24.3597C216.315 25.0296 215.98 25.8522 215.98 26.8276C215.98 27.803 216.315 28.6315 216.984 29.3131Z" fill="#02FF30"/>
<path d="M232.436 22.4207H233.423V31.2345H232.26V24.4479L227.008 31.2345H226.021V22.4207H227.184V29.2074L232.436 22.4207Z" fill="#02FF30"/>
<path d="M242.227 22.4207V23.5489H239.108V31.2345H237.945V23.5489H234.825V22.4207H242.227Z" fill="#02FF30"/>
<path d="M247.371 22.2092C248.676 22.2092 249.727 22.6733 250.526 23.6017C251.337 24.5184 251.742 25.6054 251.742 26.8629C251.742 26.9921 251.73 27.1743 251.707 27.4093H243.97C244.088 28.3025 244.464 29.0134 245.098 29.5423C245.744 30.0594 246.537 30.3179 247.477 30.3179C248.147 30.3179 248.723 30.1828 249.204 29.9125C249.698 29.6304 250.068 29.2661 250.315 28.8195L251.337 29.4189C250.949 30.0417 250.42 30.5353 249.751 30.8996C249.081 31.2639 248.317 31.4461 247.46 31.4461C246.073 31.4461 244.945 31.0113 244.076 30.1416C243.206 29.272 242.772 28.1673 242.772 26.8276C242.772 25.5114 243.201 24.4126 244.058 23.5312C244.916 22.6498 246.02 22.2092 247.371 22.2092ZM247.371 23.3373C246.455 23.3373 245.685 23.6135 245.063 24.1658C244.452 24.7064 244.088 25.4115 243.97 26.2812H250.544C250.426 25.3528 250.068 24.63 249.469 24.1129C248.87 23.5959 248.17 23.3373 247.371 23.3373Z" fill="#02FF30"/>
<path d="M258.316 22.2092C259.573 22.2092 260.642 22.6557 261.523 23.5489C262.416 24.442 262.863 25.5349 262.863 26.8276C262.863 28.1203 262.416 29.2132 261.523 30.1064C260.642 30.9995 259.573 31.4461 258.316 31.4461C256.753 31.4461 255.566 30.7997 254.756 29.507V34.7601H253.592V22.4207H254.756V24.1482C255.566 22.8555 256.753 22.2092 258.316 22.2092ZM255.76 29.3131C256.43 29.983 257.252 30.3179 258.227 30.3179C259.203 30.3179 260.025 29.983 260.695 29.3131C261.365 28.6315 261.699 27.803 261.699 26.8276C261.699 25.8522 261.365 25.0296 260.695 24.3597C260.025 23.6781 259.203 23.3373 258.227 23.3373C257.252 23.3373 256.43 23.6781 255.76 24.3597C255.09 25.0296 254.756 25.8522 254.756 26.8276C254.756 27.803 255.09 28.6315 255.76 29.3131Z" fill="#02FF30"/>
<path d="M271.212 22.4207H272.199V31.2345H271.035V24.4479L265.784 31.2345H264.797V22.4207H265.96V29.2074L271.212 22.4207Z" fill="#02FF30"/>
<path d="M278.73 22.2092C280.034 22.2092 281.085 22.6733 281.884 23.6017C282.695 24.5184 283.1 25.6054 283.1 26.8629C283.1 26.9921 283.089 27.1743 283.065 27.4093H275.328C275.446 28.3025 275.822 29.0134 276.456 29.5423C277.102 30.0594 277.895 30.3179 278.835 30.3179C279.505 30.3179 280.081 30.1828 280.562 29.9125C281.056 29.6304 281.426 29.2661 281.673 28.8195L282.695 29.4189C282.307 30.0417 281.778 30.5353 281.109 30.8996C280.439 31.2639 279.675 31.4461 278.818 31.4461C277.431 31.4461 276.303 31.0113 275.434 30.1416C274.564 29.272 274.13 28.1673 274.13 26.8276C274.13 25.5114 274.559 24.4126 275.416 23.5312C276.274 22.6498 277.378 22.2092 278.73 22.2092ZM278.73 23.3373C277.813 23.3373 277.044 23.6135 276.421 24.1658C275.81 24.7064 275.446 25.4115 275.328 26.2812H281.902C281.784 25.3528 281.426 24.63 280.827 24.1129C280.228 23.5959 279.528 23.3373 278.73 23.3373Z" fill="#02FF30"/>
<path d="M290.555 26.7042C291.518 27.0568 292 27.7443 292 28.7667C292 29.4835 291.759 30.077 291.277 30.5471C290.807 31.0054 290.126 31.2345 289.233 31.2345H284.95V22.4207H288.881C289.738 22.4207 290.402 22.644 290.872 23.0905C291.342 23.5254 291.577 24.0894 291.577 24.7828C291.577 25.6642 291.236 26.3047 290.555 26.7042ZM288.881 23.5489H286.114V26.2283H288.881C289.903 26.2283 290.414 25.7699 290.414 24.8533C290.414 24.442 290.279 24.1247 290.009 23.9014C289.75 23.6664 289.374 23.5489 288.881 23.5489ZM289.233 30.1064C289.75 30.1064 290.144 29.983 290.414 29.7362C290.696 29.4894 290.837 29.1427 290.837 28.6961C290.837 28.2848 290.696 27.9617 290.414 27.7266C290.144 27.4798 289.75 27.3564 289.233 27.3564H286.114V30.1064H289.233Z" fill="#02FF30"/>
<path d="M136.461 47.5033C135.193 47.5033 134.135 47.0861 133.289 46.2517C132.443 45.4056 132.02 44.3127 132.02 42.973C132.02 41.4687 132.243 40.3171 132.69 39.5179C133.136 38.7071 134.041 37.9726 135.404 37.3145C135.663 37.1852 136.003 37.0324 136.426 36.8561C136.861 36.6799 137.184 36.5388 137.396 36.4331C137.619 36.3273 137.86 36.1922 138.118 36.0276C138.377 35.8514 138.57 35.6575 138.7 35.4459C138.829 35.2344 138.911 34.9817 138.946 34.6879L139.863 35.2168C139.816 35.4988 139.722 35.7632 139.581 36.01C139.44 36.2568 139.293 36.4566 139.14 36.6094C138.999 36.7621 138.77 36.9325 138.453 37.1206C138.147 37.2968 137.907 37.4261 137.73 37.5084C137.566 37.5789 137.272 37.7023 136.849 37.8786C136.438 38.0548 136.162 38.1723 136.021 38.2311C135.198 38.5837 134.593 38.9538 134.206 39.3417C133.818 39.7177 133.542 40.2113 133.377 40.8224C133.777 40.2935 134.282 39.9057 134.893 39.659C135.516 39.4004 136.121 39.2711 136.708 39.2711C137.883 39.2711 138.852 39.659 139.616 40.4346C140.392 41.1984 140.779 42.1797 140.779 43.3784C140.779 44.5653 140.368 45.5525 139.546 46.3399C138.735 47.1155 137.707 47.5033 136.461 47.5033ZM136.461 46.3399C137.378 46.3399 138.13 46.0637 138.717 45.5114C139.317 44.9473 139.616 44.2363 139.616 43.3784C139.616 42.5088 139.334 41.7978 138.77 41.2454C138.218 40.6814 137.478 40.3993 136.55 40.3993C135.715 40.3993 134.958 40.6637 134.276 41.1926C133.595 41.7096 133.254 42.403 133.254 43.2726C133.254 44.1658 133.559 44.9003 134.17 45.4761C134.793 46.0519 135.557 46.3399 136.461 46.3399Z" fill="#02FF30"/>
<path d="M146.62 38.2664C147.924 38.2664 148.975 38.7306 149.774 39.659C150.585 40.5756 150.99 41.6626 150.99 42.9201C150.99 43.0494 150.979 43.2315 150.955 43.4665H143.218C143.336 44.3597 143.712 45.0707 144.346 45.5995C144.992 46.1166 145.785 46.3751 146.725 46.3751C147.395 46.3751 147.971 46.24 148.452 45.9697C148.946 45.6876 149.316 45.3233 149.563 44.8768L150.585 45.4761C150.197 46.0989 149.668 46.5925 148.999 46.9568C148.329 47.3211 147.565 47.5033 146.708 47.5033C145.321 47.5033 144.193 47.0685 143.324 46.1988C142.454 45.3292 142.02 44.2245 142.02 42.8848C142.02 41.5686 142.449 40.4698 143.306 39.5884C144.164 38.7071 145.268 38.2664 146.62 38.2664ZM146.62 39.3945C145.703 39.3945 144.934 39.6707 144.311 40.223C143.7 40.7636 143.336 41.4687 143.218 42.3384H149.792C149.674 41.41 149.316 40.6872 148.717 40.1702C148.118 39.6531 147.418 39.3945 146.62 39.3945Z" fill="#02FF30"/>
<path d="M157.215 42.7614C158.238 43.1492 158.749 43.8544 158.749 44.8768C158.749 45.6054 158.461 46.2282 157.885 46.7453C157.321 47.2506 156.51 47.5033 155.453 47.5033C153.679 47.5033 152.516 46.7982 151.963 45.388L152.95 44.8062C153.315 45.8522 154.149 46.3751 155.453 46.3751C156.134 46.3751 156.657 46.2282 157.021 45.9344C157.397 45.6406 157.585 45.2646 157.585 44.8062C157.585 44.3949 157.433 44.06 157.127 43.8015C156.822 43.5429 156.41 43.4137 155.894 43.4137H154.607V42.2855H155.541C156.046 42.2855 156.44 42.1621 156.722 41.9153C157.016 41.6568 157.162 41.3042 157.162 40.8576C157.162 40.4346 156.992 40.0879 156.651 39.8176C156.311 39.5356 155.852 39.3945 155.277 39.3945C154.172 39.3945 153.438 39.8352 153.074 40.7166L152.104 40.1525C152.692 38.8951 153.749 38.2664 155.277 38.2664C156.205 38.2664 156.945 38.5131 157.497 39.0067C158.05 39.4886 158.326 40.082 158.326 40.7871C158.326 41.692 157.956 42.3501 157.215 42.7614Z" fill="#02FF30"/>
<path d="M167.901 46.1812C167.008 47.0626 165.915 47.5033 164.623 47.5033C163.33 47.5033 162.232 47.0626 161.327 46.1812C160.434 45.2881 159.988 44.1893 159.988 42.8848C159.988 41.5804 160.434 40.4875 161.327 39.6061C162.232 38.7129 163.33 38.2664 164.623 38.2664C165.915 38.2664 167.008 38.7129 167.901 39.6061C168.806 40.4875 169.258 41.5804 169.258 42.8848C169.258 44.1893 168.806 45.2881 167.901 46.1812ZM162.156 45.3703C162.825 46.0402 163.648 46.3751 164.623 46.3751C165.598 46.3751 166.42 46.0402 167.09 45.3703C167.76 44.6887 168.095 43.8602 168.095 42.8848C168.095 41.9094 167.76 41.0868 167.09 40.4169C166.42 39.7353 165.598 39.3945 164.623 39.3945C163.648 39.3945 162.825 39.7353 162.156 40.4169C161.486 41.0868 161.151 41.9094 161.151 42.8848C161.151 43.8602 161.486 44.6887 162.156 45.3703Z" fill="#02FF30"/>
<path d="M178.606 38.4779V47.2918H177.443V39.6061H172.368V47.2918H171.204V38.4779H178.606Z" fill="#02FF30"/>
<path d="M188.644 38.4779H189.808V47.2918H188.644V45.5642C187.834 46.8569 186.647 47.5033 185.084 47.5033C183.827 47.5033 182.752 47.0567 181.859 46.1636C180.978 45.2704 180.537 44.1775 180.537 42.8848C180.537 41.5921 180.978 40.4992 181.859 39.6061C182.752 38.7129 183.827 38.2664 185.084 38.2664C186.647 38.2664 187.834 38.9127 188.644 40.2054V38.4779ZM182.705 45.3703C183.375 46.0402 184.197 46.3751 185.173 46.3751C186.148 46.3751 186.97 46.0402 187.64 45.3703C188.31 44.6887 188.644 43.8602 188.644 42.8848C188.644 41.9094 188.31 41.0868 187.64 40.4169C186.97 39.7353 186.148 39.3945 185.173 39.3945C184.197 39.3945 183.375 39.7353 182.705 40.4169C182.035 41.0868 181.701 41.9094 181.701 42.8848C181.701 43.8602 182.035 44.6887 182.705 45.3703Z" fill="#02FF30"/>
<path d="M196.377 47.5033C195.049 47.5033 193.945 47.0626 193.063 46.1812C192.182 45.2881 191.742 44.1893 191.742 42.8848C191.742 41.5804 192.182 40.4875 193.063 39.6061C193.945 38.7129 195.049 38.2664 196.377 38.2664C197.246 38.2664 198.028 38.4779 198.721 38.901C199.414 39.3123 199.919 39.8705 200.236 40.5756L199.285 41.1221C199.05 40.5932 198.668 40.176 198.139 39.8705C197.622 39.5532 197.035 39.3945 196.377 39.3945C195.402 39.3945 194.579 39.7353 193.909 40.4169C193.24 41.0868 192.905 41.9094 192.905 42.8848C192.905 43.8602 193.24 44.6887 193.909 45.3703C194.579 46.0402 195.402 46.3751 196.377 46.3751C197.035 46.3751 197.622 46.2223 198.139 45.9168C198.656 45.5995 199.061 45.1764 199.355 44.6476L200.324 45.2117C199.96 45.9168 199.426 46.475 198.721 46.8863C198.016 47.2976 197.234 47.5033 196.377 47.5033Z" fill="#02FF30"/>
<path d="M208.233 38.4779H209.396V47.2918H208.233V43.4489H203.158V47.2918H201.994V38.4779H203.158V42.3207H208.233V38.4779Z" fill="#02FF30"/>
<path d="M219.241 46.1812C218.348 47.0626 217.255 47.5033 215.963 47.5033C214.67 47.5033 213.572 47.0626 212.667 46.1812C211.774 45.2881 211.328 44.1893 211.328 42.8848C211.328 41.5804 211.774 40.4875 212.667 39.6061C213.572 38.7129 214.67 38.2664 215.963 38.2664C217.255 38.2664 218.348 38.7129 219.241 39.6061C220.145 40.4875 220.598 41.5804 220.598 42.8848C220.598 44.1893 220.145 45.2881 219.241 46.1812ZM213.495 45.3703C214.165 46.0402 214.987 46.3751 215.963 46.3751C216.938 46.3751 217.76 46.0402 218.43 45.3703C219.1 44.6887 219.435 43.8602 219.435 42.8848C219.435 41.9094 219.1 41.0868 218.43 40.4169C217.76 39.7353 216.938 39.3945 215.963 39.3945C214.987 39.3945 214.165 39.7353 213.495 40.4169C212.826 41.0868 212.491 41.9094 212.491 42.8848C212.491 43.8602 212.826 44.6887 213.495 45.3703Z" fill="#02FF30"/>
<path d="M226.651 47.5033C225.323 47.5033 224.218 47.0626 223.337 46.1812C222.456 45.2881 222.015 44.1893 222.015 42.8848C222.015 41.5804 222.456 40.4875 223.337 39.6061C224.218 38.7129 225.323 38.2664 226.651 38.2664C227.52 38.2664 228.301 38.4779 228.994 38.901C229.688 39.3123 230.193 39.8705 230.51 40.5756L229.558 41.1221C229.323 40.5932 228.942 40.176 228.413 39.8705C227.896 39.5532 227.308 39.3945 226.651 39.3945C225.675 39.3945 224.853 39.7353 224.183 40.4169C223.513 41.0868 223.179 41.9094 223.179 42.8848C223.179 43.8602 223.513 44.6887 224.183 45.3703C224.853 46.0402 225.675 46.3751 226.651 46.3751C227.308 46.3751 227.896 46.2223 228.413 45.9168C228.93 45.5995 229.335 45.1764 229.629 44.6476L230.598 45.2117C230.234 45.9168 229.699 46.475 228.994 46.8863C228.29 47.2976 227.508 47.5033 226.651 47.5033Z" fill="#02FF30"/>
<path d="M238.441 38.4779V39.6061H235.321V47.2918H234.158V39.6061H231.039V38.4779H238.441Z" fill="#02FF30"/>
<path d="M246.273 38.4779H247.26V47.2918H246.097V40.5051L240.845 47.2918H239.858V38.4779H241.021V45.2646L246.273 38.4779Z" fill="#02FF30"/>
<path d="M136.036 55.6788H136.646V61.1191H135.928V56.9301L132.686 61.1191H132.077V55.6788H132.795V59.8678L136.036 55.6788Z" fill="white"/>
<path d="M142.015 55.6788H142.733V61.1191H142.015V58.7471H138.882V61.1191H138.164V55.6788H138.882V58.0508H142.015V55.6788Z" fill="white"/>
<path d="M149.56 56.4622C150.082 56.9917 150.343 57.6373 150.343 58.3989C150.343 59.1606 150.082 59.8062 149.56 60.3357C149.037 60.8652 148.348 61.1662 147.493 61.2388V63.2952H146.775V61.2388C145.919 61.1662 145.23 60.8652 144.708 60.3357C144.186 59.8062 143.925 59.1606 143.925 58.3989C143.925 57.6373 144.186 56.9917 144.708 56.4622C145.23 55.9327 145.919 55.6316 146.775 55.5591V53.5027H147.493V55.5591C148.348 55.6316 149.037 55.9327 149.56 56.4622ZM145.219 56.9627C144.835 57.3544 144.643 57.8331 144.643 58.3989C144.643 58.9647 144.835 59.4471 145.219 59.8461C145.604 60.2378 146.122 60.4662 146.775 60.5315V56.2663C146.122 56.3316 145.604 56.5637 145.219 56.9627ZM147.493 60.5315C148.145 60.4662 148.664 60.2378 149.048 59.8461C149.433 59.4471 149.625 58.9647 149.625 58.3989C149.625 57.8331 149.433 57.3544 149.048 56.9627C148.664 56.5637 148.145 56.3316 147.493 56.2663V60.5315Z" fill="white"/>
<path d="M154.454 55.5482C155.23 55.5482 155.89 55.8239 156.434 56.3751C156.985 56.9264 157.26 57.601 157.26 58.3989C157.26 59.1968 156.985 59.8714 156.434 60.4227C155.89 60.974 155.23 61.2496 154.454 61.2496C153.489 61.2496 152.757 60.8507 152.257 60.0528V63.2952H151.539V55.6788H152.257V56.7451C152.757 55.9472 153.489 55.5482 154.454 55.5482ZM152.877 59.9331C153.29 60.3466 153.798 60.5533 154.4 60.5533C155.001 60.5533 155.509 60.3466 155.922 59.9331C156.336 59.5124 156.542 59.001 156.542 58.3989C156.542 57.7969 156.336 57.2891 155.922 56.8757C155.509 56.4549 155.001 56.2446 154.4 56.2446C153.798 56.2446 153.29 56.4549 152.877 56.8757C152.463 57.2891 152.257 57.7969 152.257 58.3989C152.257 59.001 152.463 59.5124 152.877 59.9331Z" fill="white"/>
<path d="M163.132 55.6788H163.85V61.1191H163.132V60.0528C162.631 60.8507 161.899 61.2496 160.934 61.2496C160.159 61.2496 159.495 60.974 158.944 60.4227C158.4 59.8714 158.128 59.1968 158.128 58.3989C158.128 57.601 158.4 56.9264 158.944 56.3751C159.495 55.8239 160.159 55.5482 160.934 55.5482C161.899 55.5482 162.631 55.9472 163.132 56.7451V55.6788ZM159.466 59.9331C159.879 60.3466 160.387 60.5533 160.989 60.5533C161.591 60.5533 162.098 60.3466 162.512 59.9331C162.925 59.5124 163.132 59.001 163.132 58.3989C163.132 57.7969 162.925 57.2891 162.512 56.8757C162.098 56.4549 161.591 56.2446 160.989 56.2446C160.387 56.2446 159.879 56.4549 159.466 56.8757C159.053 57.2891 158.846 57.7969 158.846 58.3989C158.846 59.001 159.053 59.5124 159.466 59.9331Z" fill="white"/>
<path d="M167.905 61.2496C167.085 61.2496 166.403 60.9776 165.86 60.4336C165.316 59.8823 165.044 59.2041 165.044 58.3989C165.044 57.5938 165.316 56.9192 165.86 56.3751C166.403 55.8239 167.085 55.5482 167.905 55.5482C168.441 55.5482 168.924 55.6788 169.351 55.9399C169.779 56.1938 170.091 56.5384 170.287 56.9736L169.699 57.3109C169.554 56.9845 169.319 56.7269 168.992 56.5384C168.673 56.3425 168.311 56.2446 167.905 56.2446C167.303 56.2446 166.795 56.4549 166.382 56.8757C165.968 57.2891 165.762 57.7969 165.762 58.3989C165.762 59.001 165.968 59.5124 166.382 59.9331C166.795 60.3466 167.303 60.5533 167.905 60.5533C168.311 60.5533 168.673 60.459 168.992 60.2704C169.312 60.0745 169.562 59.8134 169.743 59.487L170.341 59.8352C170.116 60.2704 169.787 60.6149 169.351 60.8688C168.916 61.1227 168.434 61.2496 167.905 61.2496Z" fill="white"/>
<path d="M175.182 55.6788V56.3751H173.257V61.1191H172.539V56.3751H170.613V55.6788H175.182Z" fill="white"/>
<path d="M178.972 55.5482C179.748 55.5482 180.408 55.8239 180.952 56.3751C181.503 56.9264 181.779 57.601 181.779 58.3989C181.779 59.1968 181.503 59.8714 180.952 60.4227C180.408 60.974 179.748 61.2496 178.972 61.2496C178.008 61.2496 177.275 60.8507 176.775 60.0528V63.2952H176.057V55.6788H176.775V56.7451C177.275 55.9472 178.008 55.5482 178.972 55.5482ZM177.395 59.9331C177.808 60.3466 178.316 60.5533 178.918 60.5533C179.52 60.5533 180.028 60.3466 180.441 59.9331C180.854 59.5124 181.061 59.001 181.061 58.3989C181.061 57.7969 180.854 57.2891 180.441 56.8757C180.028 56.4549 179.52 56.2446 178.918 56.2446C178.316 56.2446 177.808 56.4549 177.395 56.8757C176.982 57.2891 176.775 57.7969 176.775 58.3989C176.775 59.001 176.982 59.5124 177.395 59.9331Z" fill="white"/>
<path d="M186.676 55.6788H187.438L185.11 61.6196C184.9 62.1564 184.599 62.5771 184.207 62.8817C183.823 63.1936 183.391 63.3315 182.913 63.2952V62.6206C183.565 62.6931 184.062 62.3159 184.403 61.489L184.544 61.1517L182.108 55.6788H182.869L184.914 60.2378L186.676 55.6788Z" fill="white"/>
<path d="M192.7 61.1191H191.743L189.023 58.4969V61.1191H188.306V55.6788H189.023V58.0834L191.613 55.6788H192.592L189.785 58.2901L192.7 61.1191Z" fill="white"/>
<path d="M197.597 55.6788V56.3751H195.672V61.1191H194.954V56.3751H193.028V55.6788H197.597Z" fill="white"/>
<path d="M202.388 55.6788H203.15L200.822 61.6196C200.611 62.1564 200.31 62.5771 199.919 62.8817C199.534 63.1936 199.103 63.3315 198.624 63.2952V62.6206C199.277 62.6931 199.774 62.3159 200.115 61.489L200.256 61.1517L197.819 55.6788H198.581L200.626 60.2378L202.388 55.6788Z" fill="white"/>
<path d="M206.933 55.5482C207.709 55.5482 208.369 55.8239 208.912 56.3751C209.464 56.9264 209.739 57.601 209.739 58.3989C209.739 59.1968 209.464 59.8714 208.912 60.4227C208.369 60.974 207.709 61.2496 206.933 61.2496C205.968 61.2496 205.236 60.8507 204.735 60.0528V63.2952H204.017V55.6788H204.735V56.7451C205.236 55.9472 205.968 55.5482 206.933 55.5482ZM205.355 59.9331C205.769 60.3466 206.276 60.5533 206.878 60.5533C207.48 60.5533 207.988 60.3466 208.401 59.9331C208.815 59.5124 209.021 59.001 209.021 58.3989C209.021 57.7969 208.815 57.2891 208.401 56.8757C207.988 56.4549 207.48 56.2446 206.878 56.2446C206.276 56.2446 205.769 56.4549 205.355 56.8757C204.942 57.2891 204.735 57.7969 204.735 58.3989C204.735 59.001 204.942 59.5124 205.355 59.9331Z" fill="white"/>
<path d="M215.611 55.6788H216.329V61.1191H215.611V60.0528C215.11 60.8507 214.378 61.2496 213.413 61.2496C212.637 61.2496 211.974 60.974 211.423 60.4227C210.879 59.8714 210.607 59.1968 210.607 58.3989C210.607 57.601 210.879 56.9264 211.423 56.3751C211.974 55.8239 212.637 55.5482 213.413 55.5482C214.378 55.5482 215.11 55.9472 215.611 56.7451V55.6788ZM211.945 59.9331C212.358 60.3466 212.866 60.5533 213.468 60.5533C214.07 60.5533 214.577 60.3466 214.991 59.9331C215.404 59.5124 215.611 59.001 215.611 58.3989C215.611 57.7969 215.404 57.2891 214.991 56.8757C214.577 56.4549 214.07 56.2446 213.468 56.2446C212.866 56.2446 212.358 56.4549 211.945 56.8757C211.531 57.2891 211.325 57.7969 211.325 58.3989C211.325 59.001 211.531 59.5124 211.945 59.9331Z" fill="white"/>
<path d="M136.646 71.1275H137.407V73.2819H136.689V71.8239H132.251V73.2819H131.533V71.1275H132.196C132.566 70.6415 132.751 69.9561 132.751 69.0711V66.3836H136.646V71.1275ZM133.067 71.1275H135.928V67.08H133.469V69.0711C133.469 69.9053 133.335 70.5908 133.067 71.1275Z" fill="white"/>
<path d="M142.839 71.1384C142.288 71.6824 141.613 71.9545 140.815 71.9545C140.018 71.9545 139.34 71.6824 138.781 71.1384C138.23 70.5871 137.954 69.9089 137.954 69.1037C137.954 68.2986 138.23 67.624 138.781 67.08C139.34 66.5287 140.018 66.253 140.815 66.253C141.613 66.253 142.288 66.5287 142.839 67.08C143.397 67.624 143.676 68.2986 143.676 69.1037C143.676 69.9089 143.397 70.5871 142.839 71.1384ZM139.292 70.6379C139.706 71.0514 140.213 71.2581 140.815 71.2581C141.417 71.2581 141.925 71.0514 142.338 70.6379C142.752 70.2172 142.958 69.7058 142.958 69.1037C142.958 68.5017 142.752 67.9939 142.338 67.5805C141.925 67.1597 141.417 66.9494 140.815 66.9494C140.213 66.9494 139.706 67.1597 139.292 67.5805C138.879 67.9939 138.672 68.5017 138.672 69.1037C138.672 69.7058 138.879 70.2172 139.292 70.6379Z" fill="white"/>
<path d="M148.337 69.0276C148.932 69.2452 149.229 69.6695 149.229 70.3006C149.229 70.7431 149.08 71.1094 148.783 71.3996C148.493 71.6824 148.072 71.8239 147.521 71.8239H144.878V66.3836H147.304C147.833 66.3836 148.243 66.5214 148.533 66.7971C148.823 67.0654 148.968 67.4136 148.968 67.8416C148.968 68.3856 148.758 68.781 148.337 69.0276ZM147.304 67.08H145.596V68.7338H147.304C147.935 68.7338 148.25 68.4509 148.25 67.8851C148.25 67.6312 148.167 67.4354 148 67.2976C147.84 67.1525 147.608 67.08 147.304 67.08ZM147.521 71.1275C147.84 71.1275 148.083 71.0514 148.25 70.899C148.424 70.7467 148.511 70.5327 148.511 70.2571C148.511 70.0032 148.424 69.8037 148.25 69.6587C148.083 69.5063 147.84 69.4302 147.521 69.4302H145.596V71.1275H147.521Z" fill="white"/>
<path d="M152.83 66.253C153.635 66.253 154.284 66.5396 154.777 67.1126C155.277 67.6784 155.528 68.3494 155.528 69.1255C155.528 69.2053 155.52 69.3177 155.506 69.4628H150.73C150.803 70.0141 151.035 70.4529 151.426 70.7794C151.825 71.0985 152.315 71.2581 152.895 71.2581C153.308 71.2581 153.664 71.1747 153.961 71.0078C154.266 70.8338 154.494 70.6089 154.646 70.3333L155.277 70.7032C155.038 71.0876 154.712 71.3923 154.298 71.6172C153.885 71.842 153.414 71.9545 152.884 71.9545C152.028 71.9545 151.332 71.6861 150.796 71.1493C150.259 70.6125 149.991 69.9307 149.991 69.1037C149.991 68.2913 150.255 67.6131 150.785 67.0691C151.314 66.525 151.996 66.253 152.83 66.253ZM152.83 66.9494C152.264 66.9494 151.789 67.1199 151.405 67.4608C151.028 67.7944 150.803 68.2297 150.73 68.7664H154.788C154.715 68.1934 154.494 67.7473 154.124 67.4281C153.754 67.109 153.323 66.9494 152.83 66.9494Z" fill="white"/>
<path d="M159.585 66.253C160.361 66.253 161.021 66.5287 161.565 67.08C162.116 67.6312 162.391 68.3058 162.391 69.1037C162.391 69.9017 162.116 70.5763 161.565 71.1275C161.021 71.6788 160.361 71.9545 159.585 71.9545C158.62 71.9545 157.888 71.5555 157.388 70.7576V74H156.67V66.3836H157.388V67.4499C157.888 66.652 158.62 66.253 159.585 66.253ZM158.008 70.6379C158.421 71.0514 158.929 71.2581 159.531 71.2581C160.132 71.2581 160.64 71.0514 161.053 70.6379C161.467 70.2172 161.674 69.7058 161.674 69.1037C161.674 68.5017 161.467 67.9939 161.053 67.5805C160.64 67.1597 160.132 66.9494 159.531 66.9494C158.929 66.9494 158.421 67.1597 158.008 67.5805C157.594 67.9939 157.388 68.5017 157.388 69.1037C157.388 69.7058 157.594 70.2172 158.008 70.6379Z" fill="white"/>
<path d="M167.545 66.3836H168.154V71.8239H167.436V67.6349L164.194 71.8239H163.585V66.3836H164.303V70.5726L167.545 66.3836Z" fill="white"/>
<path d="M173.589 66.3836V71.8239H172.871V69.7348H171.935L170.26 71.8239H169.346L171.065 69.7131C170.63 69.6478 170.271 69.4664 169.988 69.169C169.705 68.8716 169.564 68.5053 169.564 68.0701C169.564 67.5768 169.738 67.1742 170.086 66.8623C170.441 66.5432 170.873 66.3836 171.38 66.3836H173.589ZM171.38 69.0602H172.871V67.08H171.38C171.076 67.08 170.815 67.1706 170.597 67.352C170.387 67.5333 170.282 67.7727 170.282 68.0701C170.282 68.3675 170.387 68.6069 170.597 68.7882C170.815 68.9696 171.076 69.0602 171.38 69.0602Z" fill="white"/>
</svg>
